# xmcd CD database file
#
# Track frame offsets:
#	150
#	12273
#	13208
#	29329
#	30323
#	45185
#	46800
#	57407
#	58777
#	63160
#	64122
#	87097
#	88475
#	102240
#	103371
#	125747
#	127659
#	138810
#	139939
#	161720
#	162691
#	185315
#	186754
#	233530
#	235003
#	249140
#	250056
#
# Disc length: 3389 seconds
#
# Revision: 2
# Processed by: cddbd v1.5.2PL0 Copyright (c) Steve Scherf et al.
# Submitted via: CDex 1.51
#
DISCID=660d3b1b
DTITLE=Waddie Mitchell - That No-Quit Attitude
DYEAR=2002
DGENRE=Cowboy
TTITLE0=Pride Goeth
TTITLE1=Waddie-ism
TTITLE2=Who But The Horse
TTITLE3=Waddie-ism
TTITLE4=Don
TTITLE5=Waddie-ism
TTITLE6=Experience Of Life
TTITLE7=Waddie-ism
TTITLE8=Harsh Words
TTITLE9=Waddie-ism
TTITLE10=Dad
TTITLE11=Waddie-ism
TTITLE12=Orejana
TTITLE13=Waddie-ism
TTITLE14=Teepee
TTITLE15=Waddie-ism
TTITLE16=Bisquits And Gravy
TTITLE17=Waddie-ism
TTITLE18=Through The Pain
TTITLE19=Waddie-ism
TTITLE20=No Quit Attitude
TTITLE21=Waddie-ism
TTITLE22=Cat-tastrophy
TTITLE23=Waddie-ism
TTITLE24=The Sum
TTITLE25=Waddie-ism
TTITLE26=Sentiment Toast
EXTD=YEAR: 2002
EXTT0=
EXTT1=
EXTT2=
EXTT3=
EXTT4=
EXTT5=
EXTT6=
EXTT7=
EXTT8=
EXTT9=
EXTT10=
EXTT11=
EXTT12=
EXTT13=
EXTT14=
EXTT15=
EXTT16=
EXTT17=
EXTT18=
EXTT19=
EXTT20=
EXTT21=
EXTT22=
EXTT23=
EXTT24=
EXTT25=
EXTT26=
PLAYORDER=
